<?xml version="1.0" standalone="no"?>
<!DOCTYPE svg PUBLIC "-//W3C//DTD SVG 1.1//EN"
"http://www.w3.org/Graphics/SVG/1.1/DTD/svg11.dtd">
<!-- Creator: fig2dev Version 3.2 Patchlevel 5e -->
<!-- CreationDate: Fri Jun 22 15:10:29 2018 -->
<!-- Magnification: 1.050 -->
<svg	xmlns="http://www.w3.org/2000/svg"
	xmlns:xlink="http://www.w3.org/1999/xlink"
	width="8.7in" height="5.3in"
	viewBox="-2425 -13433 10443 6355">
<g style="stroke-width:.025in; fill:none">
<!-- Circle -->
<circle cx="-755" cy="-11385" r="317"
 style="stroke:#000000;stroke-width:63;"/>
<!-- Circle -->
<circle cx="-755" cy="-11244" r="47"
 style="stroke:#000000;stroke-width:63;"/>
<!-- Line -->
<polyline points="-755,-11196
-755,-10866
" style="stroke:#000000;stroke-width:63;
stroke-linejoin:miter; stroke-linecap:butt;
"/>
<!-- Line -->
<polyline points="-850,-11527
-708,-11527
-661,-11527
" style="stroke:#000000;stroke-width:63;
stroke-linejoin:miter; stroke-linecap:butt;
"/>
<!-- Line -->
<polyline points="-755,-11527
-755,-11905
" style="stroke:#000000;stroke-width:63;
stroke-linejoin:miter; stroke-linecap:butt;
"/>
<!-- Line -->
<polyline points="-897,-11527
-614,-11527
" style="stroke:#000000;stroke-width:63;
stroke-linejoin:miter; stroke-linecap:butt;
"/>
<!-- Line -->
<polyline points="-755,-10818
-755,-10629
" style="stroke:#000000;stroke-width:63;
stroke-linejoin:miter; stroke-linecap:butt;
"/>
<!-- Line -->
<polyline points="-519,-10629
-992,-10629
-755,-10251
-519,-10629
" style="stroke:#000000;stroke-width:63;
stroke-linejoin:miter; stroke-linecap:butt;
"/>
<!-- Line -->
<polyline points="-472,-10204
-1039,-10204
" style="stroke:#000000;stroke-width:63;
stroke-linejoin:miter; stroke-linecap:butt;
"/>
<!-- Line -->
<polyline points="-755,-10204
-755,-10015
-755,-10062
" style="stroke:#000000;stroke-width:63;
stroke-linejoin:miter; stroke-linecap:butt;
"/>
<!-- Line -->
<polyline points="-753,-9618
-753,-9524
-659,-9477
-753,-9429
-848,-9382
-659,-9288
-848,-9193
-659,-9099
-848,-9004
-753,-8957
-753,-8862
" style="stroke:#000000;stroke-width:63;
stroke-linejoin:miter; stroke-linecap:butt;
"/>
<!-- Line -->
<polyline points="0,-9826
188,-9826
" style="stroke:#000000;stroke-width:63;
stroke-linejoin:miter; stroke-linecap:butt;
"/>
<!-- Line -->
<polyline points="0,-10157
0,-9496
" style="stroke:#000000;stroke-width:63;
stroke-linejoin:miter; stroke-linecap:butt;
"/>
<!-- Line -->
<polyline points="-141,-10157
-141,-9496
" style="stroke:#000000;stroke-width:63;
stroke-linejoin:miter; stroke-linecap:butt;
"/>
<!-- Line -->
<polyline points="-330,-9826
-141,-9826
" style="stroke:#000000;stroke-width:63;
stroke-linejoin:miter; stroke-linecap:butt;
"/>
<!-- Circle -->
<circle cx="-755" cy="-9826" r="47"
 style="stroke:#000000;stroke-width:63;"/>
<!-- Line -->
<polyline points="-755,-10960
-755,-10771
" style="stroke:#000000;stroke-width:63;
stroke-linejoin:miter; stroke-linecap:butt;
"/>
<!-- Line -->
<polyline points="-755,-10062
-755,-9590
" style="stroke:#000000;stroke-width:63;
stroke-linejoin:miter; stroke-linecap:butt;
"/>
<!-- Line -->
<polyline points="-330,-9826
-755,-9826
" style="stroke:#000000;stroke-width:63;
stroke-linejoin:miter; stroke-linecap:butt;
"/>
<!-- Line -->
<polyline points="141,-9826
661,-9826
661,-10866
1228,-10866
" style="stroke:#000000;stroke-width:63;
stroke-linejoin:miter; stroke-linecap:butt;
"/>
<!-- Circle -->
<circle cx="1228" cy="-11385" r="317"
 style="stroke:#000000;stroke-width:63;"/>
<!-- Circle -->
<circle cx="1228" cy="-11244" r="47"
 style="stroke:#000000;stroke-width:63;"/>
<!-- Line -->
<polyline points="1228,-11196
1228,-10866
" style="stroke:#000000;stroke-width:63;
stroke-linejoin:miter; stroke-linecap:butt;
"/>
<!-- Line -->
<polyline points="1133,-11527
1275,-11527
1322,-11527
" style="stroke:#000000;stroke-width:63;
stroke-linejoin:miter; stroke-linecap:butt;
"/>
<!-- Line -->
<polyline points="1228,-11527
1228,-11905
" style="stroke:#000000;stroke-width:63;
stroke-linejoin:miter; stroke-linecap:butt;
"/>
<!-- Line -->
<polyline points="1086,-11527
1370,-11527
" style="stroke:#000000;stroke-width:63;
stroke-linejoin:miter; stroke-linecap:butt;
"/>
<!-- Line -->
<polyline points="1228,-10818
1228,-10629
" style="stroke:#000000;stroke-width:63;
stroke-linejoin:miter; stroke-linecap:butt;
"/>
<!-- Line -->
<polyline points="1464,-10629
992,-10629
1228,-10251
1464,-10629
" style="stroke:#000000;stroke-width:63;
stroke-linejoin:miter; stroke-linecap:butt;
"/>
<!-- Line -->
<polyline points="1511,-10204
944,-10204
" style="stroke:#000000;stroke-width:63;
stroke-linejoin:miter; stroke-linecap:butt;
"/>
<!-- Line -->
<polyline points="1228,-10204
1228,-10015
1228,-10062
" style="stroke:#000000;stroke-width:63;
stroke-linejoin:miter; stroke-linecap:butt;
"/>
<!-- Line -->
<polyline points="1230,-9618
1230,-9524
1324,-9477
1230,-9429
1135,-9382
1324,-9288
1135,-9193
1324,-9099
1135,-9004
1230,-8957
1230,-8862
" style="stroke:#000000;stroke-width:63;
stroke-linejoin:miter; stroke-linecap:butt;
"/>
<!-- Line -->
<polyline points="1984,-9826
2173,-9826
" style="stroke:#000000;stroke-width:63;
stroke-linejoin:miter; stroke-linecap:butt;
"/>
<!-- Line -->
<polyline points="1984,-10157
1984,-9496
" style="stroke:#000000;stroke-width:63;
stroke-linejoin:miter; stroke-linecap:butt;
"/>
<!-- Line -->
<polyline points="1842,-10157
1842,-9496
" style="stroke:#000000;stroke-width:63;
stroke-linejoin:miter; stroke-linecap:butt;
"/>
<!-- Line -->
<polyline points="1653,-9826
1842,-9826
" style="stroke:#000000;stroke-width:63;
stroke-linejoin:miter; stroke-linecap:butt;
"/>
<!-- Circle -->
<circle cx="1228" cy="-9826" r="47"
 style="stroke:#000000;stroke-width:63;"/>
<!-- Line -->
<polyline points="1228,-10960
1228,-10771
" style="stroke:#000000;stroke-width:63;
stroke-linejoin:miter; stroke-linecap:butt;
"/>
<!-- Line -->
<polyline points="1228,-10062
1228,-9590
" style="stroke:#000000;stroke-width:63;
stroke-linejoin:miter; stroke-linecap:butt;
"/>
<!-- Line -->
<polyline points="1653,-9826
1228,-9826
" style="stroke:#000000;stroke-width:63;
stroke-linejoin:miter; stroke-linecap:butt;
"/>
<!-- Line -->
<polyline points="2125,-9826
2645,-9826
2645,-10866
3212,-10866
" style="stroke:#000000;stroke-width:63;
stroke-linejoin:miter; stroke-linecap:butt;
"/>
<!-- Circle -->
<circle cx="3212" cy="-11385" r="317"
 style="stroke:#000000;stroke-width:63;"/>
<!-- Circle -->
<circle cx="3212" cy="-11244" r="47"
 style="stroke:#000000;stroke-width:63;"/>
<!-- Line -->
<polyline points="3212,-11196
3212,-10866
" style="stroke:#000000;stroke-width:63;
stroke-linejoin:miter; stroke-linecap:butt;
"/>
<!-- Line -->
<polyline points="3118,-11527
3259,-11527
3307,-11527
" style="stroke:#000000;stroke-width:63;
stroke-linejoin:miter; stroke-linecap:butt;
"/>
<!-- Line -->
<polyline points="3212,-11527
3212,-11905
" style="stroke:#000000;stroke-width:63;
stroke-linejoin:miter; stroke-linecap:butt;
"/>
<!-- Line -->
<polyline points="3070,-11527
3354,-11527
" style="stroke:#000000;stroke-width:63;
stroke-linejoin:miter; stroke-linecap:butt;
"/>
<!-- Line -->
<polyline points="3212,-10818
3212,-10629
" style="stroke:#000000;stroke-width:63;
stroke-linejoin:miter; stroke-linecap:butt;
"/>
<!-- Line -->
<polyline points="3448,-10629
2976,-10629
3212,-10251
3448,-10629
" style="stroke:#000000;stroke-width:63;
stroke-linejoin:miter; stroke-linecap:butt;
"/>
<!-- Line -->
<polyline points="3496,-10204
2929,-10204
" style="stroke:#000000;stroke-width:63;
stroke-linejoin:miter; stroke-linecap:butt;
"/>
<!-- Line -->
<polyline points="3212,-10204
3212,-10015
3212,-10062
" style="stroke:#000000;stroke-width:63;
stroke-linejoin:miter; stroke-linecap:butt;
"/>
<!-- Line -->
<polyline points="3214,-9618
3214,-9524
3309,-9477
3214,-9429
3120,-9382
3309,-9288
3120,-9193
3309,-9099
3120,-9004
3214,-8957
3214,-8862
" style="stroke:#000000;stroke-width:63;
stroke-linejoin:miter; stroke-linecap:butt;
"/>
<!-- Line -->
<polyline points="3968,-9826
4157,-9826
" style="stroke:#000000;stroke-width:63;
stroke-linejoin:miter; stroke-linecap:butt;
"/>
<!-- Line -->
<polyline points="3968,-10157
3968,-9496
" style="stroke:#000000;stroke-width:63;
stroke-linejoin:miter; stroke-linecap:butt;
"/>
<!-- Line -->
<polyline points="3826,-10157
3826,-9496
" style="stroke:#000000;stroke-width:63;
stroke-linejoin:miter; stroke-linecap:butt;
"/>
<!-- Line -->
<polyline points="3637,-9826
3826,-9826
" style="stroke:#000000;stroke-width:63;
stroke-linejoin:miter; stroke-linecap:butt;
"/>
<!-- Circle -->
<circle cx="3212" cy="-9826" r="47"
 style="stroke:#000000;stroke-width:63;"/>
<!-- Line -->
<polyline points="3212,-10960
3212,-10771
" style="stroke:#000000;stroke-width:63;
stroke-linejoin:miter; stroke-linecap:butt;
"/>
<!-- Line -->
<polyline points="3212,-10062
3212,-9590
" style="stroke:#000000;stroke-width:63;
stroke-linejoin:miter; stroke-linecap:butt;
"/>
<!-- Line -->
<polyline points="3637,-9826
3212,-9826
" style="stroke:#000000;stroke-width:63;
stroke-linejoin:miter; stroke-linecap:butt;
"/>
<!-- Line -->
<polyline points="4110,-9826
4629,-9826
4629,-10866
5196,-10866
" style="stroke:#000000;stroke-width:63;
stroke-linejoin:miter; stroke-linecap:butt;
"/>
<!-- Line -->
<polyline points="2031,-8031
2409,-8031
" style="stroke:#000000;stroke-width:63;
stroke-linejoin:miter; stroke-linecap:butt;
"/>
<!-- Line -->
<polyline points="2125,-7889
2314,-7889
" style="stroke:#000000;stroke-width:63;
stroke-linejoin:miter; stroke-linecap:butt;
"/>
<!-- Line -->
<polyline points="2220,-8645
2220,-8173
" style="stroke:#000000;stroke-width:63;
stroke-linejoin:miter; stroke-linecap:butt;
"/>
<!-- Line -->
<polyline points="1937,-8173
2503,-8173
" style="stroke:#000000;stroke-width:63;
stroke-linejoin:miter; stroke-linecap:butt;
"/>
<!-- Circle -->
<circle cx="5196" cy="-11385" r="317"
 style="stroke:#000000;stroke-width:63;"/>
<!-- Circle -->
<circle cx="5196" cy="-11244" r="47"
 style="stroke:#000000;stroke-width:63;"/>
<!-- Line -->
<polyline points="5196,-11196
5196,-10866
" style="stroke:#000000;stroke-width:63;
stroke-linejoin:miter; stroke-linecap:butt;
"/>
<!-- Line -->
<polyline points="5102,-11527
5244,-11527
5291,-11527
" style="stroke:#000000;stroke-width:63;
stroke-linejoin:miter; stroke-linecap:butt;
"/>
<!-- Line -->
<polyline points="5196,-11527
5196,-11905
" style="stroke:#000000;stroke-width:63;
stroke-linejoin:miter; stroke-linecap:butt;
"/>
<!-- Line -->
<polyline points="5055,-11527
5338,-11527
" style="stroke:#000000;stroke-width:63;
stroke-linejoin:miter; stroke-linecap:butt;
"/>
<!-- Line -->
<polyline points="5196,-10818
5196,-10629
" style="stroke:#000000;stroke-width:63;
stroke-linejoin:miter; stroke-linecap:butt;
"/>
<!-- Line -->
<polyline points="5433,-10629
4960,-10629
5196,-10251
5433,-10629
" style="stroke:#000000;stroke-width:63;
stroke-linejoin:miter; stroke-linecap:butt;
"/>
<!-- Line -->
<polyline points="5480,-10204
4913,-10204
" style="stroke:#000000;stroke-width:63;
stroke-linejoin:miter; stroke-linecap:butt;
"/>
<!-- Line -->
<polyline points="5196,-10204
5196,-10015
5196,-10062
" style="stroke:#000000;stroke-width:63;
stroke-linejoin:miter; stroke-linecap:butt;
"/>
<!-- Line -->
<polyline points="5198,-9618
5198,-9524
5293,-9477
5198,-9429
5104,-9382
5293,-9288
5104,-9193
5293,-9099
5104,-9004
5198,-8957
5198,-8862
" style="stroke:#000000;stroke-width:63;
stroke-linejoin:miter; stroke-linecap:butt;
"/>
<!-- Line -->
<polyline points="5952,-9826
6141,-9826
" style="stroke:#000000;stroke-width:63;
stroke-linejoin:miter; stroke-linecap:butt;
"/>
<!-- Line -->
<polyline points="5952,-10157
5952,-9496
" style="stroke:#000000;stroke-width:63;
stroke-linejoin:miter; stroke-linecap:butt;
"/>
<!-- Line -->
<polyline points="5811,-10157
5811,-9496
" style="stroke:#000000;stroke-width:63;
stroke-linejoin:miter; stroke-linecap:butt;
"/>
<!-- Line -->
<polyline points="5622,-9826
5811,-9826
" style="stroke:#000000;stroke-width:63;
stroke-linejoin:miter; stroke-linecap:butt;
"/>
<!-- Line -->
<polyline points="5055,-7464
5244,-7464
" style="stroke:#000000;stroke-width:63;
stroke-linejoin:miter; stroke-linecap:butt;
"/>
<!-- Line -->
<polyline points="5055,-7795
5055,-7133
" style="stroke:#000000;stroke-width:63;
stroke-linejoin:miter; stroke-linecap:butt;
"/>
<!-- Line -->
<polyline points="4913,-7795
4913,-7133
" style="stroke:#000000;stroke-width:63;
stroke-linejoin:miter; stroke-linecap:butt;
"/>
<!-- Line -->
<polyline points="4724,-7464
4913,-7464
" style="stroke:#000000;stroke-width:63;
stroke-linejoin:miter; stroke-linecap:butt;
"/>
<!-- Line -->
<polyline points="-750,-12930
-750,-12835
-656,-12788
-750,-12741
-845,-12693
-656,-12599
-845,-12504
-656,-12410
-845,-12316
-750,-12268
-750,-12174
" style="stroke:#000000;stroke-width:63;
stroke-linejoin:miter; stroke-linecap:butt;
"/>
<!-- Circle -->
<circle cx="-755" cy="-11952" r="47"
 style="stroke:#000000;stroke-width:63;"/>
<!-- Circle -->
<circle cx="1228" cy="-11952" r="47"
 style="stroke:#000000;stroke-width:63;"/>
<!-- Circle -->
<circle cx="3212" cy="-11952" r="47"
 style="stroke:#000000;stroke-width:63;"/>
<!-- Circle -->
<circle cx="3212" cy="-10866" r="47"
 style="stroke:#000000;stroke-width:63;"/>
<!-- Circle -->
<circle cx="1228" cy="-10866" r="47"
 style="stroke:#000000;stroke-width:63;"/>
<!-- Circle -->
<circle cx="5196" cy="-10866" r="47"
 style="stroke:#000000;stroke-width:63;"/>
<!-- Circle -->
<circle cx="1228" cy="-8692" r="47"
 style="stroke:#000000;stroke-width:63;"/>
<!-- Circle -->
<circle cx="3212" cy="-8645" r="47"
 style="stroke:#000000;stroke-width:63;"/>
<!-- Circle -->
<circle cx="5196" cy="-9826" r="47"
 style="stroke:#000000;stroke-width:63;"/>
<!-- Circle -->
<circle cx="-1748" cy="-11952" r="106"
 style="stroke:#000000;stroke-width:63;"/>
<!-- Circle -->
<circle cx="7039" cy="-9826" r="106"
 style="stroke:#000000;stroke-width:63;"/>
<!-- Circle -->
<circle cx="5196" cy="-11952" r="47"
 style="stroke:#000000;stroke-width:63;"/>
<!-- Circle -->
<circle cx="-755" cy="-10866" r="47"
 style="stroke:#000000;stroke-width:63;"/>
<!-- Circle -->
<circle cx="5527" cy="-9826" r="47"
 style="stroke:#000000;stroke-width:63;"/>
<!-- Circle -->
<circle cx="2220" cy="-8645" r="47"
 style="stroke:#000000;stroke-width:63;"/>
<!-- Line -->
<polyline points="-755,-11952
5196,-11952
" style="stroke:#000000;stroke-width:63;
stroke-linejoin:miter; stroke-linecap:butt;
"/>
<!-- Line -->
<polyline points="-708,-8645
5244,-8645
" style="stroke:#000000;stroke-width:63;
stroke-linejoin:miter; stroke-linecap:butt;
"/>
<!-- Line -->
<polyline points="-755,-8929
-755,-8645
" style="stroke:#000000;stroke-width:63;
stroke-linejoin:miter; stroke-linecap:butt;
"/>
<!-- Line -->
<polyline points="-661,-8645
-755,-8645
" style="stroke:#000000;stroke-width:63;
stroke-linejoin:miter; stroke-linecap:butt;
"/>
<!-- Line -->
<polyline points="1228,-8881
1228,-8645
" style="stroke:#000000;stroke-width:63;
stroke-linejoin:miter; stroke-linecap:butt;
"/>
<!-- Line -->
<polyline points="3212,-8881
3212,-8645
" style="stroke:#000000;stroke-width:63;
stroke-linejoin:miter; stroke-linecap:butt;
"/>
<!-- Line -->
<polyline points="5196,-8881
5196,-8692
" style="stroke:#000000;stroke-width:63;
stroke-linejoin:miter; stroke-linecap:butt;
"/>
<!-- Line -->
<polyline points="5196,-8645
5196,-8834
" style="stroke:#000000;stroke-width:63;
stroke-linejoin:miter; stroke-linecap:butt;
"/>
<!-- Line -->
<polyline points="5196,-10960
5196,-10771
" style="stroke:#000000;stroke-width:63;
stroke-linejoin:miter; stroke-linecap:butt;
"/>
<!-- Line -->
<polyline points="5196,-10062
5196,-9590
" style="stroke:#000000;stroke-width:63;
stroke-linejoin:miter; stroke-linecap:butt;
"/>
<!-- Line -->
<polyline points="5622,-9826
5196,-9826
" style="stroke:#000000;stroke-width:63;
stroke-linejoin:miter; stroke-linecap:butt;
"/>
<!-- Line -->
<polyline points="6141,-9826
6992,-9826
" style="stroke:#000000;stroke-width:63;
stroke-linejoin:miter; stroke-linecap:butt;
"/>
<!-- Line -->
<polyline points="5527,-9826
5527,-7464
5244,-7464
" style="stroke:#000000;stroke-width:63;
stroke-linejoin:miter; stroke-linecap:butt;
"/>
<!-- Line -->
<polyline points="-755,-11952
-1700,-11952
" style="stroke:#000000;stroke-width:63;
stroke-linejoin:miter; stroke-linecap:butt;
"/>
<!-- Line -->
<polyline points="-755,-11952
-755,-12188
" style="stroke:#000000;stroke-width:63;
stroke-linejoin:miter; stroke-linecap:butt;
"/>
<!-- Line -->
<polyline points="-755,-12897
-755,-12992
" style="stroke:#000000;stroke-width:63;
stroke-linejoin:miter; stroke-linecap:butt;
"/>
<!-- Line -->
<polyline points="-897,-12992
-614,-12992
" style="stroke:#000000;stroke-width:63;
stroke-linejoin:miter; stroke-linecap:butt;
"/>
<!-- Line -->
<polyline points="4724,-7464
-1228,-7464
-1228,-10866
-755,-10866
-755,-10866
" style="stroke:#000000;stroke-width:63;
stroke-linejoin:miter; stroke-linecap:butt;
"/>
<!-- Text -->
<text xml:space="preserve" x="7275" y="-9685" fill="#000000"  font-family="Times" font-style="normal" font-weight="bold" font-size="303" text-anchor="start">Out</text>
<!-- Text -->
<text xml:space="preserve" x="-2409" y="-11858" fill="#000000"  font-family="Times" font-style="normal" font-weight="bold" font-size="303" text-anchor="start">In</text>
<!-- Text -->
<text xml:space="preserve" x="-1133" y="-13133" fill="#000000"  font-family="Times" font-style="normal" font-weight="bold" font-size="303" text-anchor="start">+Vs</text>
</g>
</svg>
