<?xml version="1.0" standalone="no"?>
<!DOCTYPE svg PUBLIC "-//W3C//DTD SVG 1.1//EN"
"http://www.w3.org/Graphics/SVG/1.1/DTD/svg11.dtd">
<!-- Creator: fig2dev Version 3.2 Patchlevel 5e -->
<!-- CreationDate: Fri Jun 22 13:42:23 2018 -->
<!-- Magnification: 1.050 -->
<svg	xmlns="http://www.w3.org/2000/svg"
	xmlns:xlink="http://www.w3.org/1999/xlink"
	width="10.0in" height="3.2in"
	viewBox="-11826 -10456 12002 3811">
<g style="stroke-width:.025in; fill:none">
<!-- Circle -->
<circle cx="-6236" cy="-8503" r="94"
 style="stroke:#000000;stroke-width:63;"/>
<!-- Line -->
<polyline points="-8264,-9401
-6709,-8503
-8182,-7653
-8264,-7606
-8264,-9401
" style="stroke:#000000;stroke-width:63;
stroke-linejoin:miter; stroke-linecap:butt;
"/>
<!-- Line -->
<polyline points="-8125,-8881
-7937,-8881
" style="stroke:#000000;stroke-width:63;
stroke-linejoin:miter; stroke-linecap:butt;
"/>
<!-- Line -->
<polyline points="-8125,-8125
-7937,-8125
" style="stroke:#000000;stroke-width:63;
stroke-linejoin:miter; stroke-linecap:butt;
"/>
<!-- Line -->
<polyline points="-8031,-8031
-8031,-8220
" style="stroke:#000000;stroke-width:63;
stroke-linejoin:miter; stroke-linecap:butt;
"/>
<!-- Line -->
<polyline points="-7464,-8031
-7464,-7370
" style="stroke:#000000;stroke-width:63;
stroke-linejoin:miter; stroke-linecap:butt;
"/>
<!-- Line -->
<polyline points="-7653,-7370
-7275,-7370
" style="stroke:#000000;stroke-width:63;
stroke-linejoin:miter; stroke-linecap:butt;
"/>
<!-- Line -->
<polyline points="-7559,-7275
-7370,-7275
" style="stroke:#000000;stroke-width:63;
stroke-linejoin:miter; stroke-linecap:butt;
"/>
<!-- Line -->
<polyline points="-7511,-7181
-7417,-7181
" style="stroke:#000000;stroke-width:63;
stroke-linejoin:miter; stroke-linecap:butt;
"/>
<!-- Line -->
<polyline points="-7464,-8929
-7464,-9826
" style="stroke:#000000;stroke-width:63;
stroke-linejoin:miter; stroke-linecap:butt;
"/>
<!-- Line -->
<polyline points="-7606,-9826
-7322,-9826
" style="stroke:#000000;stroke-width:63;
stroke-linejoin:miter; stroke-linecap:butt;
"/>
<!-- Line -->
<polyline points="-8503,-8881
-8267,-8881
" style="stroke:#000000;stroke-width:63;
stroke-linejoin:miter; stroke-linecap:butt;
"/>
<!-- Line -->
<polyline points="-8267,-8125
-8503,-8125
" style="stroke:#000000;stroke-width:63;
stroke-linejoin:miter; stroke-linecap:butt;
"/>
<!-- Line -->
<polyline points="-6755,-8503
-6283,-8503
" style="stroke:#000000;stroke-width:63;
stroke-linejoin:miter; stroke-linecap:butt;
"/>
<!-- Line -->
<polyline points="-10355,-7700
-10261,-7700
-10214,-7795
-10166,-7700
-10119,-7606
-10025,-7795
-9930,-7606
-9836,-7795
-9741,-7606
-9694,-7700
-9600,-7700
" style="stroke:#000000;stroke-width:63;
stroke-linejoin:miter; stroke-linecap:butt;
"/>
<!-- Circle -->
<circle cx="-10934" cy="-7700" r="106"
 style="stroke:#000000;stroke-width:63;"/>
<!-- Line -->
<polyline points="-10839,-7700
-10367,-7700
" style="stroke:#000000;stroke-width:63;
stroke-linejoin:miter; stroke-linecap:butt;
"/>
<!-- Line -->
<polyline points="-10414,-7700
-10320,-7700
" style="stroke:#000000;stroke-width:63;
stroke-linejoin:miter; stroke-linecap:butt;
"/>
<!-- Line -->
<polyline points="-10366,-8600
-10271,-8600
-10224,-8695
-10177,-8600
-10130,-8506
-10035,-8695
-9941,-8506
-9846,-8695
-9752,-8506
-9704,-8600
-9610,-8600
" style="stroke:#000000;stroke-width:63;
stroke-linejoin:miter; stroke-linecap:butt;
"/>
<!-- Circle -->
<circle cx="-10944" cy="-8600" r="106"
 style="stroke:#000000;stroke-width:63;"/>
<!-- Line -->
<polyline points="-10850,-8600
-10377,-8600
" style="stroke:#000000;stroke-width:63;
stroke-linejoin:miter; stroke-linecap:butt;
"/>
<!-- Line -->
<polyline points="-10425,-8600
-10330,-8600
" style="stroke:#000000;stroke-width:63;
stroke-linejoin:miter; stroke-linecap:butt;
"/>
<!-- Line -->
<polyline points="-9658,-7700
-9422,-7700
-9422,-8598
-9611,-8598
" style="stroke:#000000;stroke-width:63;
stroke-linejoin:miter; stroke-linecap:butt;
"/>
<!-- Line -->
<polyline points="-8786,-7753
-8786,-7658
-8691,-7611
-8786,-7564
-8880,-7517
-8691,-7422
-8880,-7328
-8691,-7233
-8880,-7139
-8786,-7091
-8786,-6997
" style="stroke:#000000;stroke-width:63;
stroke-linejoin:miter; stroke-linecap:butt;
"/>
<!-- Line -->
<polyline points="-8786,-9901
-8786,-9806
-8691,-9759
-8786,-9712
-8880,-9665
-8691,-9570
-8880,-9476
-8691,-9381
-8880,-9287
-8786,-9239
-8786,-9145
" style="stroke:#000000;stroke-width:63;
stroke-linejoin:miter; stroke-linecap:butt;
"/>
<!-- Circle -->
<circle cx="-8781" cy="-8878" r="47"
 style="stroke:#000000;stroke-width:63;"/>
<!-- Line -->
<polyline points="-8787,-9165
-8787,-7748
" style="stroke:#000000;stroke-width:63;
stroke-linejoin:miter; stroke-linecap:butt;
"/>
<!-- Line -->
<polyline points="-8503,-8881
-8787,-8881
" style="stroke:#000000;stroke-width:63;
stroke-linejoin:miter; stroke-linecap:butt;
"/>
<!-- Line -->
<polyline points="-8787,-7039
-8787,-6897
" style="stroke:#000000;stroke-width:63;
stroke-linejoin:miter; stroke-linecap:butt;
"/>
<!-- Line -->
<polyline points="-8976,-6897
-8598,-6897
-8645,-6897
" style="stroke:#000000;stroke-width:63;
stroke-linejoin:miter; stroke-linecap:butt;
"/>
<!-- Line -->
<polyline points="-8881,-6803
-8692,-6803
" style="stroke:#000000;stroke-width:63;
stroke-linejoin:miter; stroke-linecap:butt;
"/>
<!-- Line -->
<polyline points="-8834,-6708
-8740,-6708
" style="stroke:#000000;stroke-width:63;
stroke-linejoin:miter; stroke-linecap:butt;
"/>
<!-- Line -->
<polyline points="-8787,-9874
-8787,-10015
" style="stroke:#000000;stroke-width:63;
stroke-linejoin:miter; stroke-linecap:butt;
"/>
<!-- Line -->
<polyline points="-8881,-10015
-8692,-10015
" style="stroke:#000000;stroke-width:63;
stroke-linejoin:miter; stroke-linecap:butt;
"/>
<!-- Circle -->
<circle cx="-803" cy="-8503" r="94"
 style="stroke:#000000;stroke-width:63;"/>
<!-- Line -->
<polyline points="-2831,-9401
-1276,-8503
-2749,-7653
-2831,-7606
-2831,-9401
" style="stroke:#000000;stroke-width:63;
stroke-linejoin:miter; stroke-linecap:butt;
"/>
<!-- Line -->
<polyline points="-2692,-8881
-2503,-8881
" style="stroke:#000000;stroke-width:63;
stroke-linejoin:miter; stroke-linecap:butt;
"/>
<!-- Line -->
<polyline points="-2692,-8125
-2503,-8125
" style="stroke:#000000;stroke-width:63;
stroke-linejoin:miter; stroke-linecap:butt;
"/>
<!-- Line -->
<polyline points="-2598,-8031
-2598,-8220
" style="stroke:#000000;stroke-width:63;
stroke-linejoin:miter; stroke-linecap:butt;
"/>
<!-- Line -->
<polyline points="-2031,-8031
-2031,-7370
" style="stroke:#000000;stroke-width:63;
stroke-linejoin:miter; stroke-linecap:butt;
"/>
<!-- Line -->
<polyline points="-2220,-7370
-1842,-7370
" style="stroke:#000000;stroke-width:63;
stroke-linejoin:miter; stroke-linecap:butt;
"/>
<!-- Line -->
<polyline points="-2125,-7275
-1937,-7275
" style="stroke:#000000;stroke-width:63;
stroke-linejoin:miter; stroke-linecap:butt;
"/>
<!-- Line -->
<polyline points="-2078,-7181
-1984,-7181
" style="stroke:#000000;stroke-width:63;
stroke-linejoin:miter; stroke-linecap:butt;
"/>
<!-- Line -->
<polyline points="-2031,-8929
-2031,-9826
" style="stroke:#000000;stroke-width:63;
stroke-linejoin:miter; stroke-linecap:butt;
"/>
<!-- Line -->
<polyline points="-2173,-9826
-1889,-9826
" style="stroke:#000000;stroke-width:63;
stroke-linejoin:miter; stroke-linecap:butt;
"/>
<!-- Line -->
<polyline points="-3070,-8881
-2834,-8881
" style="stroke:#000000;stroke-width:63;
stroke-linejoin:miter; stroke-linecap:butt;
"/>
<!-- Line -->
<polyline points="-2834,-8125
-3070,-8125
" style="stroke:#000000;stroke-width:63;
stroke-linejoin:miter; stroke-linecap:butt;
"/>
<!-- Line -->
<polyline points="-1322,-8503
-850,-8503
" style="stroke:#000000;stroke-width:63;
stroke-linejoin:miter; stroke-linecap:butt;
"/>
<!-- Line -->
<polyline points="-3353,-7753
-3353,-7658
-3258,-7611
-3353,-7564
-3447,-7517
-3258,-7422
-3447,-7328
-3258,-7233
-3447,-7139
-3353,-7091
-3353,-6997
" style="stroke:#000000;stroke-width:63;
stroke-linejoin:miter; stroke-linecap:butt;
"/>
<!-- Line -->
<polyline points="-3353,-9901
-3353,-9806
-3258,-9759
-3353,-9712
-3447,-9665
-3258,-9570
-3447,-9476
-3258,-9381
-3447,-9287
-3353,-9239
-3353,-9145
" style="stroke:#000000;stroke-width:63;
stroke-linejoin:miter; stroke-linecap:butt;
"/>
<!-- Circle -->
<circle cx="-3354" cy="-8125" r="47"
 style="stroke:#000000;stroke-width:63;"/>
<!-- Circle -->
<circle cx="-3968" cy="-8881" r="94"
 style="stroke:#000000;stroke-width:63;"/>
<!-- Line -->
<polyline points="-3354,-7039
-3354,-6897
" style="stroke:#000000;stroke-width:63;
stroke-linejoin:miter; stroke-linecap:butt;
"/>
<!-- Line -->
<polyline points="-3543,-6897
-3165,-6897
-3212,-6897
" style="stroke:#000000;stroke-width:63;
stroke-linejoin:miter; stroke-linecap:butt;
"/>
<!-- Line -->
<polyline points="-3448,-6803
-3259,-6803
" style="stroke:#000000;stroke-width:63;
stroke-linejoin:miter; stroke-linecap:butt;
"/>
<!-- Line -->
<polyline points="-3401,-6708
-3307,-6708
" style="stroke:#000000;stroke-width:63;
stroke-linejoin:miter; stroke-linecap:butt;
"/>
<!-- Line -->
<polyline points="-3354,-9874
-3354,-10015
" style="stroke:#000000;stroke-width:63;
stroke-linejoin:miter; stroke-linecap:butt;
"/>
<!-- Line -->
<polyline points="-3448,-10015
-3259,-10015
" style="stroke:#000000;stroke-width:63;
stroke-linejoin:miter; stroke-linecap:butt;
"/>
<!-- Line -->
<polyline points="-3354,-9165
-3354,-7748
" style="stroke:#000000;stroke-width:63;
stroke-linejoin:miter; stroke-linecap:butt;
"/>
<!-- Line -->
<polyline points="-3070,-8125
-3354,-8125
" style="stroke:#000000;stroke-width:63;
stroke-linejoin:miter; stroke-linecap:butt;
"/>
<!-- Line -->
<polyline points="-3070,-8881
-3921,-8881
" style="stroke:#000000;stroke-width:63;
stroke-linejoin:miter; stroke-linecap:butt;
"/>
<!-- Circle -->
<circle cx="-9401" cy="-8125" r="47"
 style="stroke:#000000;stroke-width:63;"/>
<!-- Line -->
<polyline points="-8503,-8125
-9401,-8125
" style="stroke:#000000;stroke-width:63;
stroke-linejoin:miter; stroke-linecap:butt;
"/>
<!-- Text -->
<text xml:space="preserve" x="-7795" y="-9968" fill="#000000"  font-family="Times" font-style="normal" font-weight="bold" font-size="303" text-anchor="start">+Vs</text>
<!-- Text -->
<text xml:space="preserve" x="-6000" y="-8362" fill="#000000"  font-family="Times" font-style="normal" font-weight="bold" font-size="303" text-anchor="start">Out</text>
<!-- Text -->
<text xml:space="preserve" x="-2362" y="-9968" fill="#000000"  font-family="Times" font-style="normal" font-weight="bold" font-size="303" text-anchor="start">+Vs</text>
<!-- Text -->
<text xml:space="preserve" x="-566" y="-8362" fill="#000000"  font-family="Times" font-style="normal" font-weight="bold" font-size="303" text-anchor="start">Out</text>
<!-- Text -->
<text xml:space="preserve" x="-3732" y="-10157" fill="#000000"  font-family="Times" font-style="normal" font-weight="bold" font-size="303" text-anchor="start">+Vs</text>
<!-- Text -->
<text xml:space="preserve" x="-4629" y="-8787" fill="#000000"  font-family="Times" font-style="normal" font-weight="bold" font-size="303" text-anchor="start">In</text>
<!-- Text -->
<text xml:space="preserve" x="-9118" y="-10157" fill="#000000"  font-family="Times" font-style="normal" font-weight="bold" font-size="303" text-anchor="start">+Vs</text>
<!-- Text -->
<text xml:space="preserve" x="-11811" y="-7559" fill="#000000"  font-family="Times" font-style="normal" font-weight="bold" font-size="303" text-anchor="start">In2</text>
<!-- Text -->
<text xml:space="preserve" x="-11811" y="-8456" fill="#000000"  font-family="Times" font-style="normal" font-weight="bold" font-size="303" text-anchor="start">In1</text>
<!-- Text -->
<text xml:space="preserve" x="-850" y="-6661" fill="#000000"  font-family="Times" font-style="italic" font-weight="bold" font-size="303" text-anchor="start">b</text>
<!-- Text -->
<text xml:space="preserve" x="-6330" y="-6661" fill="#000000"  font-family="Times" font-style="italic" font-weight="bold" font-size="303" text-anchor="start">a</text>
</g>
</svg>
