<?xml version="1.0" standalone="no"?>
<!DOCTYPE svg PUBLIC "-//W3C//DTD SVG 1.1//EN"
"http://www.w3.org/Graphics/SVG/1.1/DTD/svg11.dtd">
<!-- Creator: fig2dev Version 3.2 Patchlevel 5e -->
<!-- CreationDate: Fri Jun 22 16:22:59 2018 -->
<!-- Magnification: 1.050 -->
<svg	xmlns="http://www.w3.org/2000/svg"
	xmlns:xlink="http://www.w3.org/1999/xlink"
	width="11.8in" height="4.9in"
	viewBox="-8425 -13858 14128 5889">
<g style="stroke-width:.025in; fill:none">
<!-- Line -->
<polyline points="-4110,-12803
-3732,-12803
" style="stroke:#000000;stroke-width:63;
stroke-linejoin:miter; stroke-linecap:butt;
"/>
<!-- Line -->
<polyline points="-4015,-12661
-3826,-12661
" style="stroke:#000000;stroke-width:63;
stroke-linejoin:miter; stroke-linecap:butt;
"/>
<!-- Line -->
<polyline points="-3921,-13417
-3921,-12944
" style="stroke:#000000;stroke-width:63;
stroke-linejoin:miter; stroke-linecap:butt;
"/>
<!-- Line -->
<polyline points="-4204,-12944
-3637,-12944
" style="stroke:#000000;stroke-width:63;
stroke-linejoin:miter; stroke-linecap:butt;
"/>
<!-- Line -->
<polyline points="-7606,-11244
-7228,-11244
" style="stroke:#000000;stroke-width:63;
stroke-linejoin:miter; stroke-linecap:butt;
"/>
<!-- Line -->
<polyline points="-7511,-11102
-7322,-11102
" style="stroke:#000000;stroke-width:63;
stroke-linejoin:miter; stroke-linecap:butt;
"/>
<!-- Line -->
<polyline points="-7417,-11858
-7417,-11385
" style="stroke:#000000;stroke-width:63;
stroke-linejoin:miter; stroke-linecap:butt;
"/>
<!-- Line -->
<polyline points="-7700,-11385
-7133,-11385
" style="stroke:#000000;stroke-width:63;
stroke-linejoin:miter; stroke-linecap:butt;
"/>
<!-- Circle -->
<circle cx="-7417" cy="-13086" r="106"
 style="stroke:#000000;stroke-width:63;"/>
<!-- Line: box -->
<rect x="-6661" y="-13370" width="850" height="1511" rx="0" 
style="stroke:#000000;stroke-width:63;
stroke-linejoin:miter; stroke-linecap:butt;
"/>
<!-- Line -->
<polyline points="-6661,-11858
-5811,-13370
" style="stroke:#000000;stroke-width:63;
stroke-linejoin:miter; stroke-linecap:butt;
"/>
<!-- Line -->
<polyline points="-5811,-11858
-6661,-13370
" style="stroke:#000000;stroke-width:63;
stroke-linejoin:miter; stroke-linecap:butt;
"/>
<!-- Line -->
<polyline points="-5055,-11858
-5574,-11858
-5574,-12377
-5055,-12377
-4535,-12755
" style="stroke:#000000;stroke-width:63;
stroke-linejoin:miter; stroke-linecap:butt;
"/>
<!-- Line -->
<polyline points="-4582,-12614
-4582,-13417
-3874,-13417
" style="stroke:#000000;stroke-width:63;
stroke-linejoin:miter; stroke-linecap:butt;
"/>
<!-- Line -->
<polyline points="-4582,-12425
-4582,-12377
-3307,-12377
-3307,-13322
" style="stroke:#000000;stroke-width:63;
stroke-linejoin:miter; stroke-linecap:butt;
"/>
<!-- Line -->
<polyline points="-4582,-12472
-4582,-12377
" style="stroke:#000000;stroke-width:63;
stroke-linejoin:miter; stroke-linecap:butt;
"/>
<!-- Line -->
<polyline points="-3448,-13322
-3165,-13322
" style="stroke:#000000;stroke-width:63;
stroke-linejoin:miter; stroke-linecap:butt;
"/>
<!-- Line -->
<polyline points="-5669,-12661
-4913,-12661
-4913,-12519
" style="stroke:#000000;stroke-width:63;
stroke-linejoin:miter; stroke-linecap:butt;
stroke-dasharray:41 41;"/>
<!-- Line -->
<polyline points="-7417,-12188
-7417,-11858
-7417,-11811
" style="stroke:#000000;stroke-width:63;
stroke-linejoin:miter; stroke-linecap:butt;
"/>
<!-- Line -->
<polyline points="-6661,-12188
-7417,-12188
-7417,-11952
" style="stroke:#000000;stroke-width:63;
stroke-linejoin:miter; stroke-linecap:butt;
"/>
<!-- Line -->
<polyline points="-6661,-13086
-7322,-13086
" style="stroke:#000000;stroke-width:63;
stroke-linejoin:miter; stroke-linecap:butt;
"/>
<!-- Line -->
<polyline points="-4110,-9921
-3732,-9921
" style="stroke:#000000;stroke-width:63;
stroke-linejoin:miter; stroke-linecap:butt;
"/>
<!-- Line -->
<polyline points="-4015,-9779
-3826,-9779
" style="stroke:#000000;stroke-width:63;
stroke-linejoin:miter; stroke-linecap:butt;
"/>
<!-- Line -->
<polyline points="-3921,-10535
-3921,-10062
" style="stroke:#000000;stroke-width:63;
stroke-linejoin:miter; stroke-linecap:butt;
"/>
<!-- Line -->
<polyline points="-4204,-10062
-3637,-10062
" style="stroke:#000000;stroke-width:63;
stroke-linejoin:miter; stroke-linecap:butt;
"/>
<!-- Line -->
<polyline points="-7606,-8362
-7228,-8362
" style="stroke:#000000;stroke-width:63;
stroke-linejoin:miter; stroke-linecap:butt;
"/>
<!-- Line -->
<polyline points="-7511,-8220
-7322,-8220
" style="stroke:#000000;stroke-width:63;
stroke-linejoin:miter; stroke-linecap:butt;
"/>
<!-- Line -->
<polyline points="-7417,-8976
-7417,-8503
" style="stroke:#000000;stroke-width:63;
stroke-linejoin:miter; stroke-linecap:butt;
"/>
<!-- Line -->
<polyline points="-7700,-8503
-7133,-8503
" style="stroke:#000000;stroke-width:63;
stroke-linejoin:miter; stroke-linecap:butt;
"/>
<!-- Line -->
<polyline points="283,-10062
661,-10062
" style="stroke:#000000;stroke-width:63;
stroke-linejoin:miter; stroke-linecap:butt;
"/>
<!-- Line -->
<polyline points="377,-9921
566,-9921
" style="stroke:#000000;stroke-width:63;
stroke-linejoin:miter; stroke-linecap:butt;
"/>
<!-- Line -->
<polyline points="472,-10677
472,-10204
" style="stroke:#000000;stroke-width:63;
stroke-linejoin:miter; stroke-linecap:butt;
"/>
<!-- Line -->
<polyline points="188,-10204
755,-10204
" style="stroke:#000000;stroke-width:63;
stroke-linejoin:miter; stroke-linecap:butt;
"/>
<!-- Line -->
<polyline points="3732,-10062
4110,-10062
" style="stroke:#000000;stroke-width:63;
stroke-linejoin:miter; stroke-linecap:butt;
"/>
<!-- Line -->
<polyline points="3826,-9921
4015,-9921
" style="stroke:#000000;stroke-width:63;
stroke-linejoin:miter; stroke-linecap:butt;
"/>
<!-- Line -->
<polyline points="3921,-10677
3921,-10204
" style="stroke:#000000;stroke-width:63;
stroke-linejoin:miter; stroke-linecap:butt;
"/>
<!-- Line -->
<polyline points="3637,-10204
4204,-10204
" style="stroke:#000000;stroke-width:63;
stroke-linejoin:miter; stroke-linecap:butt;
"/>
<!-- Circle -->
<circle cx="-7417" cy="-10204" r="106"
 style="stroke:#000000;stroke-width:63;"/>
<!-- Circle -->
<circle cx="-2645" cy="-8976" r="106"
 style="stroke:#000000;stroke-width:63;"/>
<!-- Circle -->
<circle cx="472" cy="-11905" r="106"
 style="stroke:#000000;stroke-width:63;"/>
<!-- Circle -->
<circle cx="4744" cy="-10704" r="106"
 style="stroke:#000000;stroke-width:63;"/>
<!-- Line: box -->
<rect x="-6661" y="-10488" width="850" height="1511" rx="0" 
style="stroke:#000000;stroke-width:63;
stroke-linejoin:miter; stroke-linecap:butt;
"/>
<!-- Line -->
<polyline points="-6661,-8976
-5811,-10488
" style="stroke:#000000;stroke-width:63;
stroke-linejoin:miter; stroke-linecap:butt;
"/>
<!-- Line -->
<polyline points="-5811,-8976
-6661,-10488
" style="stroke:#000000;stroke-width:63;
stroke-linejoin:miter; stroke-linecap:butt;
"/>
<!-- Line -->
<polyline points="-5055,-8976
-5574,-8976
-5574,-9496
-5055,-9496
-4535,-9874
" style="stroke:#000000;stroke-width:63;
stroke-linejoin:miter; stroke-linecap:butt;
"/>
<!-- Line -->
<polyline points="-4582,-9732
-4582,-10535
-3874,-10535
" style="stroke:#000000;stroke-width:63;
stroke-linejoin:miter; stroke-linecap:butt;
"/>
<!-- Line -->
<polyline points="-4582,-9543
-4582,-9496
-3307,-9496
-3307,-10440
" style="stroke:#000000;stroke-width:63;
stroke-linejoin:miter; stroke-linecap:butt;
"/>
<!-- Line -->
<polyline points="-4582,-9590
-4582,-9496
" style="stroke:#000000;stroke-width:63;
stroke-linejoin:miter; stroke-linecap:butt;
"/>
<!-- Line -->
<polyline points="-5669,-9779
-4913,-9779
-4913,-9637
" style="stroke:#000000;stroke-width:63;
stroke-linejoin:miter; stroke-linecap:butt;
stroke-dasharray:41 41;"/>
<!-- Line -->
<polyline points="-7417,-9307
-7417,-8976
-7417,-8929
" style="stroke:#000000;stroke-width:63;
stroke-linejoin:miter; stroke-linecap:butt;
"/>
<!-- Line -->
<polyline points="-6661,-9307
-7417,-9307
-7417,-9070
" style="stroke:#000000;stroke-width:63;
stroke-linejoin:miter; stroke-linecap:butt;
"/>
<!-- Line -->
<polyline points="-6661,-10204
-7322,-10204
" style="stroke:#000000;stroke-width:63;
stroke-linejoin:miter; stroke-linecap:butt;
"/>
<!-- Line -->
<polyline points="-5102,-11858
-3307,-11858
-3307,-10346
" style="stroke:#000000;stroke-width:63;
stroke-linejoin:miter; stroke-linecap:butt;
"/>
<!-- Line -->
<polyline points="-5102,-8976
-2740,-8976
" style="stroke:#000000;stroke-width:63;
stroke-linejoin:miter; stroke-linecap:butt;
"/>
<!-- Line: box -->
<rect x="1228" y="-12188" width="850" height="1511" rx="0" 
style="stroke:#000000;stroke-width:63;
stroke-linejoin:miter; stroke-linecap:butt;
"/>
<!-- Line -->
<polyline points="1228,-10677
2078,-12188
" style="stroke:#000000;stroke-width:63;
stroke-linejoin:miter; stroke-linecap:butt;
"/>
<!-- Line -->
<polyline points="2078,-10677
1228,-12188
" style="stroke:#000000;stroke-width:63;
stroke-linejoin:miter; stroke-linecap:butt;
"/>
<!-- Line -->
<polyline points="2834,-10677
2314,-10677
2314,-11196
2834,-11196
3354,-11574
" style="stroke:#000000;stroke-width:63;
stroke-linejoin:miter; stroke-linecap:butt;
"/>
<!-- Line -->
<polyline points="3307,-11433
3307,-12236
3307,-12236
" style="stroke:#000000;stroke-width:63;
stroke-linejoin:miter; stroke-linecap:butt;
"/>
<!-- Line -->
<polyline points="2220,-11480
2976,-11480
2976,-11338
" style="stroke:#000000;stroke-width:63;
stroke-linejoin:miter; stroke-linecap:butt;
stroke-dasharray:41 41;"/>
<!-- Line -->
<polyline points="472,-11007
472,-10677
472,-10629
" style="stroke:#000000;stroke-width:63;
stroke-linejoin:miter; stroke-linecap:butt;
"/>
<!-- Line -->
<polyline points="1228,-11007
472,-11007
472,-10771
" style="stroke:#000000;stroke-width:63;
stroke-linejoin:miter; stroke-linecap:butt;
"/>
<!-- Line -->
<polyline points="1228,-11905
566,-11905
" style="stroke:#000000;stroke-width:63;
stroke-linejoin:miter; stroke-linecap:butt;
"/>
<!-- Line -->
<polyline points="3307,-11244
3921,-11244
3921,-10629
" style="stroke:#000000;stroke-width:63;
stroke-linejoin:miter; stroke-linecap:butt;
"/>
<!-- Line -->
<polyline points="2787,-10677
4629,-10677
" style="stroke:#000000;stroke-width:63;
stroke-linejoin:miter; stroke-linecap:butt;
"/>
<!-- Line -->
<polyline points="3165,-12236
3448,-12236
" style="stroke:#000000;stroke-width:63;
stroke-linejoin:miter; stroke-linecap:butt;
"/>
<!-- Line -->
<polyline points="3307,-11291
3307,-11196
" style="stroke:#000000;stroke-width:63;
stroke-linejoin:miter; stroke-linecap:butt;
"/>
<!-- Text -->
<text xml:space="preserve" x="-3685" y="-13559" fill="#000000"  font-family="Times" font-style="normal" font-weight="bold" font-size="303" text-anchor="start">+Vs</text>
<!-- Text -->
<text xml:space="preserve" x="-2314" y="-8834" fill="#000000"  font-family="Times" font-style="normal" font-weight="bold" font-size="303" text-anchor="start">Out</text>
<!-- Text -->
<text xml:space="preserve" x="-8362" y="-10062" fill="#000000"  font-family="Times" font-style="normal" font-weight="bold" font-size="303" text-anchor="start">In2</text>
<!-- Text -->
<text xml:space="preserve" x="-8409" y="-12944" fill="#000000"  font-family="Times" font-style="normal" font-weight="bold" font-size="303" text-anchor="start">In1</text>
<!-- Text -->
<text xml:space="preserve" x="-2692" y="-7984" fill="#000000"  font-family="Times" font-style="italic" font-weight="bold" font-size="303" text-anchor="start">a</text>
<!-- Text -->
<text xml:space="preserve" x="2929" y="-12377" fill="#000000"  font-family="Times" font-style="normal" font-weight="bold" font-size="303" text-anchor="start">+Vs</text>
<!-- Text -->
<text xml:space="preserve" x="4960" y="-10535" fill="#000000"  font-family="Times" font-style="normal" font-weight="bold" font-size="303" text-anchor="start">Out</text>
<!-- Text -->
<text xml:space="preserve" x="-188" y="-11811" fill="#000000"  font-family="Times" font-style="normal" font-weight="bold" font-size="303" text-anchor="start">In</text>
<!-- Text -->
<text xml:space="preserve" x="4629" y="-8031" fill="#000000"  font-family="Times" font-style="italic" font-weight="bold" font-size="303" text-anchor="start">b</text>
</g>
</svg>
