<?xml version="1.0" standalone="no"?>
<!DOCTYPE svg PUBLIC "-//W3C//DTD SVG 1.1//EN"
"http://www.w3.org/Graphics/SVG/1.1/DTD/svg11.dtd">
<!-- Creator: fig2dev Version 3.2 Patchlevel 5e -->
<!-- CreationDate: Fri Jun 22 13:44:20 2018 -->
<!-- Magnification: 1.050 -->
<svg	xmlns="http://www.w3.org/2000/svg"
	xmlns:xlink="http://www.w3.org/1999/xlink"
	width="10.4in" height="4.7in"
	viewBox="-10740 -11826 12427 5653">
<g style="stroke-width:.025in; fill:none">
<!-- Arc -->
<path style="stroke:#000000;stroke-width:63;stroke-linecap:butt;"
d="M -7464,-7937 A 685 685  0  0  1 -6519 -7937 " />
<!-- Circle -->
<circle cx="-7039" cy="-8787" r="1103"
 style="stroke:#000000;stroke-width:63;"/>
<!-- Line -->
<polyline points="-7370,-9637
-6708,-9637
" style="stroke:#000000;stroke-width:63;
stroke-linejoin:miter; stroke-linecap:butt;
"/>
<!-- Line -->
<polyline points="-7039,-9637
-7039,-10110
" style="stroke:#000000;stroke-width:63;
stroke-linejoin:miter; stroke-linecap:butt;
"/>
<!-- Line -->
<polyline points="-7937,-8787
-6141,-8787
" style="stroke:#000000;stroke-width:63;
stroke-linejoin:miter; stroke-linecap:butt;
stroke-dasharray:94 94;"/>
<!-- Line -->
<polyline points="-6519,-7937
-6519,-7464
" style="stroke:#000000;stroke-width:63;
stroke-linejoin:miter; stroke-linecap:butt;
"/>
<!-- Line -->
<polyline points="-8125,-8787
-8409,-8787
" style="stroke:#000000;stroke-width:63;
stroke-linejoin:miter; stroke-linecap:butt;
"/>
<!-- Line -->
<polyline points="-6803,-7464
-6236,-7464
" style="stroke:#000000;stroke-width:63;
stroke-linejoin:miter; stroke-linecap:butt;
"/>
<!-- Line -->
<polyline points="-6708,-7322
-6330,-7322
" style="stroke:#000000;stroke-width:63;
stroke-linejoin:miter; stroke-linecap:butt;
"/>
<!-- Line -->
<polyline points="-6614,-7181
-6425,-7181
" style="stroke:#000000;stroke-width:63;
stroke-linejoin:miter; stroke-linecap:butt;
"/>
<!-- Line -->
<polyline points="-9153,-8787
-9059,-8787
-9012,-8881
-8964,-8787
-8917,-8692
-8823,-8881
-8728,-8692
-8634,-8881
-8539,-8692
-8492,-8787
-8397,-8787
" style="stroke:#000000;stroke-width:63;
stroke-linejoin:miter; stroke-linecap:butt;
"/>
<!-- Arc -->
<path style="stroke:#000000;stroke-width:63;stroke-linecap:butt;"
d="M -3354,-7937 A 685 685  0  0  1 -2409 -7937 " />
<!-- Circle -->
<circle cx="-2929" cy="-8787" r="1103"
 style="stroke:#000000;stroke-width:63;"/>
<!-- Line -->
<polyline points="-3259,-9637
-2598,-9637
" style="stroke:#000000;stroke-width:63;
stroke-linejoin:miter; stroke-linecap:butt;
"/>
<!-- Line -->
<polyline points="-2929,-9637
-2929,-10110
" style="stroke:#000000;stroke-width:63;
stroke-linejoin:miter; stroke-linecap:butt;
"/>
<!-- Line -->
<polyline points="-3826,-8787
-2031,-8787
" style="stroke:#000000;stroke-width:63;
stroke-linejoin:miter; stroke-linecap:butt;
stroke-dasharray:94 94;"/>
<!-- Line -->
<polyline points="-2409,-7937
-2409,-7464
" style="stroke:#000000;stroke-width:63;
stroke-linejoin:miter; stroke-linecap:butt;
"/>
<!-- Line -->
<polyline points="-4015,-8787
-4299,-8787
" style="stroke:#000000;stroke-width:63;
stroke-linejoin:miter; stroke-linecap:butt;
"/>
<!-- Line -->
<polyline points="-2692,-7464
-2125,-7464
" style="stroke:#000000;stroke-width:63;
stroke-linejoin:miter; stroke-linecap:butt;
"/>
<!-- Line -->
<polyline points="-2598,-7322
-2220,-7322
" style="stroke:#000000;stroke-width:63;
stroke-linejoin:miter; stroke-linecap:butt;
"/>
<!-- Line -->
<polyline points="-2503,-7181
-2314,-7181
" style="stroke:#000000;stroke-width:63;
stroke-linejoin:miter; stroke-linecap:butt;
"/>
<!-- Line -->
<polyline points="-9153,-6329
-9059,-6329
-9012,-6424
-8964,-6329
-8917,-6235
-8823,-6424
-8728,-6235
-8634,-6424
-8539,-6235
-8492,-6329
-8397,-6329
" style="stroke:#000000;stroke-width:63;
stroke-linejoin:miter; stroke-linecap:butt;
"/>
<!-- Line -->
<polyline points="-5102,-11234
-5102,-11140
-5007,-11092
-5102,-11045
-5196,-10998
-5007,-10903
-5196,-10809
-5007,-10714
-5196,-10620
-5102,-10573
-5102,-10478
" style="stroke:#000000;stroke-width:63;
stroke-linejoin:miter; stroke-linecap:butt;
"/>
<!-- Line -->
<polyline points="-781,-10708
-592,-10708
" style="stroke:#000000;stroke-width:63;
stroke-linejoin:miter; stroke-linecap:butt;
"/>
<!-- Line -->
<polyline points="-781,-11039
-781,-10377
" style="stroke:#000000;stroke-width:63;
stroke-linejoin:miter; stroke-linecap:butt;
"/>
<!-- Line -->
<polyline points="-922,-11039
-922,-10377
" style="stroke:#000000;stroke-width:63;
stroke-linejoin:miter; stroke-linecap:butt;
"/>
<!-- Line -->
<polyline points="-1111,-10708
-922,-10708
" style="stroke:#000000;stroke-width:63;
stroke-linejoin:miter; stroke-linecap:butt;
"/>
<!-- Line -->
<polyline points="-1236,-9951
-1142,-9951
-1095,-10046
-1047,-9951
-1000,-9857
-906,-10046
-811,-9857
-717,-10046
-622,-9857
-575,-9951
-480,-9951
" style="stroke:#000000;stroke-width:63;
stroke-linejoin:miter; stroke-linecap:butt;
"/>
<!-- Line -->
<polyline points="-639,-10708
-308,-10708
-308,-10047
-308,-9952
-497,-9952
" style="stroke:#000000;stroke-width:63;
stroke-linejoin:miter; stroke-linecap:butt;
"/>
<!-- Line -->
<polyline points="-1111,-10708
-1442,-10708
-1442,-9952
-1206,-9952
" style="stroke:#000000;stroke-width:63;
stroke-linejoin:miter; stroke-linecap:butt;
"/>
<!-- Line -->
<polyline points="96,-9704
96,-9610
191,-9563
96,-9516
2,-9468
191,-9374
2,-9279
191,-9185
2,-9090
96,-9043
96,-8949
" style="stroke:#000000;stroke-width:63;
stroke-linejoin:miter; stroke-linecap:butt;
"/>
<!-- Circle -->
<circle cx="-9732" cy="-8787" r="106"
 style="stroke:#000000;stroke-width:63;"/>
<!-- Circle -->
<circle cx="-9732" cy="-6330" r="94"
 style="stroke:#000000;stroke-width:63;"/>
<!-- Circle -->
<circle cx="-5102" cy="-10299" r="67"
 style="stroke:#000000;stroke-width:63;"/>
<!-- Circle -->
<circle cx="661" cy="-10299" r="106"
 style="stroke:#000000;stroke-width:63;"/>
<!-- Circle -->
<circle cx="94" cy="-10299" r="47"
 style="stroke:#000000;stroke-width:63;"/>
<!-- Circle -->
<circle cx="-300" cy="-10299" r="47"
 style="stroke:#000000;stroke-width:63;"/>
<!-- Circle -->
<circle cx="-1451" cy="-10300" r="47"
 style="stroke:#000000;stroke-width:63;"/>
<!-- Line -->
<polyline points="-4299,-8787
-4629,-8787
-4629,-6330
-8409,-6330
" style="stroke:#000000;stroke-width:63;
stroke-linejoin:miter; stroke-linecap:butt;
"/>
<!-- Line -->
<polyline points="-9637,-8787
-9165,-8787
" style="stroke:#000000;stroke-width:63;
stroke-linejoin:miter; stroke-linecap:butt;
"/>
<!-- Line -->
<polyline points="-9212,-8787
-9118,-8787
" style="stroke:#000000;stroke-width:63;
stroke-linejoin:miter; stroke-linecap:butt;
"/>
<!-- Line -->
<polyline points="-9637,-6330
-9118,-6330
" style="stroke:#000000;stroke-width:63;
stroke-linejoin:miter; stroke-linecap:butt;
"/>
<!-- Line -->
<polyline points="-7039,-10062
-7039,-10299
-2929,-10299
-2929,-10062
" style="stroke:#000000;stroke-width:63;
stroke-linejoin:miter; stroke-linecap:butt;
"/>
<!-- Line -->
<polyline points="-5102,-10488
-5102,-10299
" style="stroke:#000000;stroke-width:63;
stroke-linejoin:miter; stroke-linecap:butt;
"/>
<!-- Line -->
<polyline points="-5102,-11196
-5102,-11338
" style="stroke:#000000;stroke-width:63;
stroke-linejoin:miter; stroke-linecap:butt;
"/>
<!-- Line -->
<polyline points="-5244,-11338
-4960,-11338
" style="stroke:#000000;stroke-width:63;
stroke-linejoin:miter; stroke-linecap:butt;
"/>
<!-- Line -->
<polyline points="-2929,-10299
-1464,-10299
" style="stroke:#000000;stroke-width:63;
stroke-linejoin:miter; stroke-linecap:butt;
"/>
<!-- Line -->
<polyline points="-330,-10299
566,-10299
" style="stroke:#000000;stroke-width:63;
stroke-linejoin:miter; stroke-linecap:butt;
"/>
<!-- Line -->
<polyline points="94,-10299
94,-9732
141,-9732
" style="stroke:#000000;stroke-width:63;
stroke-linejoin:miter; stroke-linecap:butt;
"/>
<!-- Line -->
<polyline points="94,-9023
94,-8787
" style="stroke:#000000;stroke-width:63;
stroke-linejoin:miter; stroke-linecap:butt;
"/>
<!-- Line -->
<polyline points="-47,-8787
236,-8787
" style="stroke:#000000;stroke-width:63;
stroke-linejoin:miter; stroke-linecap:butt;
"/>
<!-- Text -->
<text xml:space="preserve" x="-5433" y="-11527" fill="#000000"  font-family="Times" font-style="normal" font-weight="bold" font-size="303" text-anchor="start">+Va</text>
<!-- Text -->
<text xml:space="preserve" x="-10724" y="-6188" fill="#000000"  font-family="Times" font-style="normal" font-weight="bold" font-size="303" text-anchor="start">In2</text>
<!-- Text -->
<text xml:space="preserve" x="-10724" y="-8645" fill="#000000"  font-family="Times" font-style="normal" font-weight="bold" font-size="303" text-anchor="start">In1</text>
<!-- Text -->
<text xml:space="preserve" x="944" y="-10157" fill="#000000"  font-family="Times" font-style="normal" font-weight="bold" font-size="303" text-anchor="start">Out</text>
<!-- Text -->
<text xml:space="preserve" x="-425" y="-8314" fill="#000000"  font-family="Times" font-style="normal" font-weight="bold" font-size="303" text-anchor="start">-Voff</text>
</g>
</svg>
